HIERARCHY
ROOT root
{
	OFFSET 0.000000 0.000642 0.045086
	CHANNELS 6 Xposition Yposition Zposition Xrotation Yrotation Zrotation
	JOINT pelvis
	{
		OFFSET -0.002936 0.026773 0.927670
		CHANNELS 6 Xposition Yposition Zposition Xrotation Yrotation Zrotation
		JOINT thigh_R
		{
			OFFSET -0.109487 -0.026910 -0.119863
			CHANNELS 6 Xposition Yposition Zposition Xrotation Yrotation Zrotation
			JOINT calf_R
			{
				OFFSET -0.031978 -0.023263 -0.393771
				CHANNELS 3 Xrotation Yrotation Zrotation
				JOINT foot_R
				{
					OFFSET -0.052496 0.000902 -0.370102
					CHANNELS 3 Xrotation Yrotation Zrotation
					JOINT toes_R
					{
						OFFSET -0.009320 -0.126011 -0.069821
						CHANNELS 6 Xposition Yposition Zposition Xrotation Yrotation Zrotation
						End Site
						{
							OFFSET -0.004473 -0.046724 -0.003049
						}
					}
				}
				JOINT calf_twist_R
				{
					OFFSET 0.000000 0.000000 0.000000
					CHANNELS 6 Xposition Yposition Zposition Xrotation Yrotation Zrotation
					End Site
					{
						OFFSET -0.038816 0.005263 -0.254563
					}
				}
			}
			JOINT thigh_twist_R
			{
				OFFSET 0.000000 -0.000000 0.000000
				CHANNELS 6 Xposition Yposition Zposition Xrotation Yrotation Zrotation
				End Site
				{
					OFFSET -0.013447 -0.026672 -0.173442
				}
			}
		}
		JOINT thigh_L
		{
			OFFSET 0.115359 -0.026910 -0.119863
			CHANNELS 6 Xposition Yposition Zposition Xrotation Yrotation Zrotation
			JOINT calf_L
			{
				OFFSET 0.031978 -0.023263 -0.393771
				CHANNELS 3 Xrotation Yrotation Zrotation
				JOINT foot_L
				{
					OFFSET 0.052496 0.000902 -0.370102
					CHANNELS 3 Xrotation Yrotation Zrotation
					JOINT toes_L
					{
						OFFSET 0.009320 -0.126011 -0.069821
						CHANNELS 3 Xrotation Yrotation Zrotation
						End Site
						{
							OFFSET 0.004473 -0.046724 -0.003049
						}
					}
				}
				JOINT calf_twist_L
				{
					OFFSET 0.000000 0.000000 0.000000
					CHANNELS 6 Xposition Yposition Zposition Xrotation Yrotation Zrotation
					End Site
					{
						OFFSET 0.038816 0.005263 -0.254563
					}
				}
			}
			JOINT thigh_twist_L
			{
				OFFSET 0.000000 0.000000 0.000000
				CHANNELS 6 Xposition Yposition Zposition Xrotation Yrotation Zrotation
				End Site
				{
					OFFSET 0.013447 -0.026672 -0.173442
				}
			}
		}
		JOINT spine01
		{
			OFFSET -0.000052 -0.001333 0.006057
			CHANNELS 3 Xrotation Yrotation Zrotation
			JOINT spine02
			{
				OFFSET 0.002988 -0.035069 0.061561
				CHANNELS 3 Xrotation Yrotation Zrotation
				JOINT spine03
				{
					OFFSET 0.000000 0.008649 0.117635
					CHANNELS 3 Xrotation Yrotation Zrotation
					JOINT clavicle_L
					{
						OFFSET 0.031960 -0.002455 0.159580
						CHANNELS 6 Xposition Yposition Zposition Xrotation Yrotation Zrotation
						JOINT upperarm_L
						{
							OFFSET 0.106613 -0.013377 -0.022582
							CHANNELS 6 Xposition Yposition Zposition Xrotation Yrotation Zrotation
							JOINT lowerarm_L
							{
								OFFSET 0.233664 0.021966 -0.134813
								CHANNELS 3 Xrotation Yrotation Zrotation
								JOINT hand_L
								{
									OFFSET 0.202817 -0.038212 -0.103702
									CHANNELS 3 Xrotation Yrotation Zrotation
									JOINT thumb01_L
									{
										OFFSET 0.008269 -0.017364 -0.009129
										CHANNELS 6 Xposition Yposition Zposition Xrotation Yrotation Zrotation
										JOINT thumb02_L
										{
											OFFSET 0.007103 -0.025549 -0.027526
											CHANNELS 3 Xrotation Yrotation Zrotation
											JOINT thumb03_L
											{
												OFFSET 0.011035 -0.026258 -0.014218
												CHANNELS 3 Xrotation Yrotation Zrotation
												End Site
												{
													OFFSET 0.008927 -0.014147 -0.017737
												}
											}
										}
									}
									JOINT index00_L
									{
										OFFSET 0.015790 -0.019369 -0.010869
										CHANNELS 6 Xposition Yposition Zposition Xrotation Yrotation Zrotation
										JOINT index01_L
										{
											OFFSET 0.047864 -0.007217 -0.023292
											CHANNELS 3 Xrotation Yrotation Zrotation
											JOINT index02_L
											{
												OFFSET 0.026189 -0.000355 -0.020650
												CHANNELS 3 Xrotation Yrotation Zrotation
												JOINT index03_L
												{
													OFFSET 0.017813 0.001193 -0.013583
													CHANNELS 3 Xrotation Yrotation Zrotation
													End Site
													{
														OFFSET 0.013377 0.001373 -0.016250
													}
												}
											}
										}
									}
									JOINT middle00_L
									{
										OFFSET 0.016276 -0.006169 -0.012863
										CHANNELS 6 Xposition Yposition Zposition Xrotation Yrotation Zrotation
										JOINT middle01_L
										{
											OFFSET 0.049067 -0.003947 -0.017410
											CHANNELS 3 Xrotation Yrotation Zrotation
											JOINT middle02_L
											{
												OFFSET 0.029087 0.000312 -0.026941
												CHANNELS 3 Xrotation Yrotation Zrotation
												JOINT middle03_L
												{
													OFFSET 0.019190 0.000267 -0.015543
													CHANNELS 3 Xrotation Yrotation Zrotation
													End Site
													{
														OFFSET 0.014683 0.000017 -0.017510
													}
												}
											}
										}
									}
									JOINT ring00_L
									{
										OFFSET 0.017106 0.003470 -0.011997
										CHANNELS 6 Xposition Yposition Zposition Xrotation Yrotation Zrotation
										JOINT ring01_L
										{
											OFFSET 0.044984 0.002116 -0.016733
											CHANNELS 3 Xrotation Yrotation Zrotation
											JOINT ring02_L
											{
												OFFSET 0.028856 0.000400 -0.026983
												CHANNELS 3 Xrotation Yrotation Zrotation
												JOINT ring03_L
												{
													OFFSET 0.017620 0.000363 -0.013833
													CHANNELS 3 Xrotation Yrotation Zrotation
													End Site
													{
														OFFSET 0.015507 -0.000807 -0.015547
													}
												}
											}
										}
									}
									JOINT pinky00_L
									{
										OFFSET 0.014366 0.020048 -0.015014
										CHANNELS 6 Xposition Yposition Zposition Xrotation Yrotation Zrotation
										JOINT pinky01_L
										{
											OFFSET 0.041296 0.001442 -0.016227
											CHANNELS 3 Xrotation Yrotation Zrotation
											JOINT pinky02_L
											{
												OFFSET 0.024951 -0.000301 -0.020450
												CHANNELS 3 Xrotation Yrotation Zrotation
												JOINT pinky03_L
												{
													OFFSET 0.013007 -0.001157 -0.010280
													CHANNELS 3 Xrotation Yrotation Zrotation
													End Site
													{
														OFFSET 0.009963 -0.001160 -0.011403
													}
												}
											}
										}
									}
								}
								JOINT lowerarm_twist_L
								{
									OFFSET 0.000000 -0.000000 0.000000
									CHANNELS 6 Xposition Yposition Zposition Xrotation Yrotation Zrotation
									End Site
									{
										OFFSET 0.113147 -0.023106 -0.058600
									}
								}
							}
							JOINT upperarm_twist_L
							{
								OFFSET 0.000000 0.000000 0.000000
								CHANNELS 6 Xposition Yposition Zposition Xrotation Yrotation Zrotation
								End Site
								{
									OFFSET 0.131225 0.003005 -0.082365
								}
							}
						}
					}
					JOINT clavicle_R
					{
						OFFSET -0.031960 -0.002455 0.159580
						CHANNELS 6 Xposition Yposition Zposition Xrotation Yrotation Zrotation
						JOINT upperarm_R
						{
							OFFSET -0.106613 -0.013377 -0.022582
							CHANNELS 6 Xposition Yposition Zposition Xrotation Yrotation Zrotation
							JOINT lowerarm_R
							{
								OFFSET -0.233664 0.021966 -0.134813
								CHANNELS 3 Xrotation Yrotation Zrotation
								JOINT hand_R
								{
									OFFSET -0.202817 -0.038212 -0.103702
									CHANNELS 3 Xrotation Yrotation Zrotation
									JOINT thumb01_R
									{
										OFFSET -0.008269 -0.017364 -0.009129
										CHANNELS 6 Xposition Yposition Zposition Xrotation Yrotation Zrotation
										JOINT thumb02_R
										{
											OFFSET -0.007103 -0.025549 -0.027526
											CHANNELS 3 Xrotation Yrotation Zrotation
											JOINT thumb03_R
											{
												OFFSET -0.011035 -0.026258 -0.014218
												CHANNELS 3 Xrotation Yrotation Zrotation
												End Site
												{
													OFFSET -0.008927 -0.014147 -0.017737
												}
											}
										}
									}
									JOINT index00_R
									{
										OFFSET -0.015790 -0.019369 -0.010869
										CHANNELS 6 Xposition Yposition Zposition Xrotation Yrotation Zrotation
										JOINT index01_R
										{
											OFFSET -0.047864 -0.007217 -0.023292
											CHANNELS 3 Xrotation Yrotation Zrotation
											JOINT index02_R
											{
												OFFSET -0.026189 -0.000355 -0.020650
												CHANNELS 3 Xrotation Yrotation Zrotation
												JOINT index03_R
												{
													OFFSET -0.017813 0.001193 -0.013583
													CHANNELS 3 Xrotation Yrotation Zrotation
													End Site
													{
														OFFSET -0.013377 0.001373 -0.016250
													}
												}
											}
										}
									}
									JOINT middle00_R
									{
										OFFSET -0.016276 -0.006169 -0.012863
										CHANNELS 6 Xposition Yposition Zposition Xrotation Yrotation Zrotation
										JOINT middle01_R
										{
											OFFSET -0.049067 -0.003947 -0.017410
											CHANNELS 3 Xrotation Yrotation Zrotation
											JOINT middle02_R
											{
												OFFSET -0.029087 0.000312 -0.026941
												CHANNELS 3 Xrotation Yrotation Zrotation
												JOINT middle03_R
												{
													OFFSET -0.019190 0.000267 -0.015543
													CHANNELS 3 Xrotation Yrotation Zrotation
													End Site
													{
														OFFSET -0.014683 0.000017 -0.017510
													}
												}
											}
										}
									}
									JOINT ring00_R
									{
										OFFSET -0.017106 0.003470 -0.011997
										CHANNELS 6 Xposition Yposition Zposition Xrotation Yrotation Zrotation
										JOINT ring01_R
										{
											OFFSET -0.044984 0.002116 -0.016733
											CHANNELS 3 Xrotation Yrotation Zrotation
											JOINT ring02_R
											{
												OFFSET -0.028856 0.000400 -0.026983
												CHANNELS 3 Xrotation Yrotation Zrotation
												JOINT ring03_R
												{
													OFFSET -0.017620 0.000363 -0.013833
													CHANNELS 3 Xrotation Yrotation Zrotation
													End Site
													{
														OFFSET -0.015507 -0.000807 -0.015547
													}
												}
											}
										}
									}
									JOINT pinky00_R
									{
										OFFSET -0.014366 0.020048 -0.015014
										CHANNELS 6 Xposition Yposition Zposition Xrotation Yrotation Zrotation
										JOINT pinky01_R
										{
											OFFSET -0.041296 0.001442 -0.016227
											CHANNELS 3 Xrotation Yrotation Zrotation
											JOINT pinky02_R
											{
												OFFSET -0.024951 -0.000301 -0.020450
												CHANNELS 3 Xrotation Yrotation Zrotation
												JOINT pinky03_R
												{
													OFFSET -0.013007 -0.001157 -0.010280
													CHANNELS 3 Xrotation Yrotation Zrotation
													End Site
													{
														OFFSET -0.009963 -0.001160 -0.011403
													}
												}
											}
										}
									}
								}
								JOINT lowerarm_twist_R
								{
									OFFSET 0.000000 0.000000 0.000000
									CHANNELS 6 Xposition Yposition Zposition Xrotation Yrotation Zrotation
									End Site
									{
										OFFSET -0.113147 -0.023106 -0.058600
									}
								}
							}
							JOINT upperarm_twist_R
							{
								OFFSET 0.000000 0.000000 0.000000
								CHANNELS 6 Xposition Yposition Zposition Xrotation Yrotation Zrotation
								End Site
								{
									OFFSET -0.131225 0.003005 -0.082365
								}
							}
						}
					}
					JOINT neck
					{
						OFFSET -0.000000 -0.002726 0.194733
						CHANNELS 6 Xposition Yposition Zposition Xrotation Yrotation Zrotation
						JOINT head
						{
							OFFSET 0.000000 -0.047407 0.104388
							CHANNELS 3 Xrotation Yrotation Zrotation
							End Site
							{
								OFFSET -0.000000 -0.000839 0.155358
							}
						}
					}
					JOINT breast_L
					{
						OFFSET 0.075423 -0.033073 0.045626
						CHANNELS 6 Xposition Yposition Zposition Xrotation Yrotation Zrotation
						End Site
						{
							OFFSET 0.027052 -0.131754 -0.030994
						}
					}
					JOINT breast_R
					{
						OFFSET -0.075423 -0.033073 0.045626
						CHANNELS 6 Xposition Yposition Zposition Xrotation Yrotation Zrotation
						End Site
						{
							OFFSET -0.027052 -0.131754 -0.030994
						}
					}
				}
			}
		}
	}
}
MOTION
Frames: 4
Frame Time: 0.041667
0.000000 0.000642 0.045086 0.000000 0.000000 0.000000 1.556481 -1.476736 0.801185 0.000250 0.000001 -0.000005 -0.109488 -0.026910 -0.119862 15.708090 -6.181615 -0.960305 -3.581915 -3.436570 -0.442755 -17.631088 -11.120931 -1.626052 -0.009320 -0.126011 -0.069821 14.375016 -1.550606 5.422360 -0.000000 0.000000 -0.000000 0.000002 -0.000001 -0.000001 -0.000000 0.000000 0.000000 0.000000 0.000004 -0.000000 0.115359 -0.026910 -0.119864 15.695331 5.220473 0.998904 -3.583434 3.436072 0.453831 -18.159772 11.738822 2.486512 14.711246 1.682303 -5.473959 0.000000 -0.000000 -0.000000 -0.000000 -0.000003 -0.000000 -0.000000 -0.000000 -0.000000 0.000002 -0.000002 -0.000000 -22.668189 -2.335640 -0.190982 -0.000000 0.000000 -0.000000 -0.000004 -0.000000 -0.000000 0.031960 -0.002455 0.159581 -0.000005 -0.000006 -0.000006 0.106614 -0.013377 -0.022582 22.422708 -20.360546 -4.023416 5.780965 3.572372 12.630434 -1.993522 -5.803208 -4.810892 0.008269 -0.017363 -0.009130 0.000923 -0.000070 -0.000380 -0.000307 -0.000114 0.000235 -23.398435 -0.889286 10.348087 0.015791 -0.019370 -0.010870 -0.000006 -0.000022 -0.000003 -0.000179 0.014386 -0.000342 -4.033915 -4.215169 -6.828803 0.761350 -13.074685 -1.813732 0.016275 -0.006169 -0.012863 0.000004 0.000011 -0.000002 -0.000646 0.015499 -0.000432 -0.000114 0.033338 0.000383 0.000283 0.071439 0.000418 0.017107 0.003471 -0.011996 -0.000005 -0.000018 -0.000001 -0.000005 0.017525 0.000236 -0.000667 0.031913 0.000153 0.000755 0.091896 -0.004035 0.014367 0.020048 -0.015014 -0.000001 -0.000002 -0.000001 0.000248 0.017960 -0.000006 0.001923 0.039137 -0.002048 0.005972 0.104260 -0.005367 0.000000 0.000000 -0.000000 -0.000020 0.000672 0.000309 0.000000 0.000000 0.000001 -0.000006 0.001368 -0.000065 -0.031959 -0.002455 0.159580 -0.000003 0.000015 -0.000007 -0.106613 -0.013378 -0.022581 22.674657 23.786610 2.715763 5.812242 -3.574189 -12.612923 -2.033177 5.795710 4.789199 -0.008269 -0.017364 -0.009130 0.001372 -0.000757 0.000195 -0.000074 -0.000411 0.000096 -22.952250 1.111181 -9.846988 -0.015791 -0.019370 -0.010870 -0.000005 0.000011 -0.000000 -0.000143 -0.013014 0.000295 -4.059745 4.224512 6.808913 0.720652 13.110236 1.764616 -0.016274 -0.006169 -0.012862 0.000001 0.000005 -0.000001 -0.000567 -0.013608 0.000377 -0.001185 -0.011791 0.000789 0.000542 -0.020176 -0.000671 -0.017107 0.003471 -0.011996 -0.000000 0.000002 0.000001 -0.000716 -0.016761 0.000436 -0.000647 -0.015893 0.000170 -0.000128 -0.042074 0.002319 -0.014367 0.020048 -0.015014 0.000001 0.000000 -0.000002 -0.000989 -0.017901 0.001032 0.000527 -0.022085 0.001599 0.000328 -0.056885 0.006361 -0.000001 -0.000000 -0.000000 0.000004 -0.000004 0.000006 0.000001 -0.000000 0.000000 -0.000001 -0.000080 -0.000001 0.000000 -0.002727 0.194732 11.600823 4.950929 0.942665 10.997266 0.064075 0.225710 0.075424 -0.033073 0.045626 0.000424 0.000107 -0.000167 -0.075423 -0.033073 0.045626 0.000450 -0.000111 0.000180 
0.000000 0.000642 0.045086 0.000000 0.000000 0.000000 1.556481 -1.476736 0.801185 0.000250 0.000001 -0.000005 -0.109488 -0.026910 -0.119862 15.708090 -6.181615 -0.960305 -3.581915 -3.436570 -0.442755 -17.631088 -11.120931 -1.626052 -0.009320 -0.126011 -0.069821 14.375016 -1.550606 5.422360 -0.000000 0.000000 -0.000000 0.000002 -0.000001 -0.000001 -0.000000 0.000000 0.000000 0.000000 0.000004 -0.000000 0.115359 -0.026910 -0.119864 15.695331 5.220473 0.998904 -3.583434 3.436072 0.453831 -18.159772 11.738822 2.486512 14.711246 1.682303 -5.473959 0.000000 -0.000000 -0.000000 -0.000000 -0.000003 -0.000000 -0.000000 -0.000000 -0.000000 0.000002 -0.000002 -0.000000 -22.668189 -2.335640 -0.190982 -0.000000 0.000000 -0.000000 -0.000004 -0.000000 -0.000000 0.031960 -0.002455 0.159581 -0.000005 -0.000006 -0.000006 0.106614 -0.013377 -0.022582 22.422708 -20.360546 -4.023416 5.780965 3.572372 12.630434 -1.993522 -5.803208 -4.810892 0.008269 -0.017363 -0.009130 0.000923 -0.000070 -0.000380 -0.000307 -0.000114 0.000235 -23.398435 -0.889286 10.348087 0.015791 -0.019370 -0.010870 -0.000006 -0.000022 -0.000003 -0.000179 0.014386 -0.000342 -4.033915 -4.215169 -6.828803 0.761350 -13.074685 -1.813732 0.016275 -0.006169 -0.012863 0.000004 0.000011 -0.000002 -0.000646 0.015499 -0.000432 -0.000114 0.033338 0.000383 0.000283 0.071439 0.000418 0.017107 0.003471 -0.011996 -0.000005 -0.000018 -0.000001 -0.000005 0.017525 0.000236 -0.000667 0.031913 0.000153 0.000755 0.091896 -0.004035 0.014367 0.020048 -0.015014 -0.000001 -0.000002 -0.000001 0.000248 0.017960 -0.000006 0.001923 0.039137 -0.002048 0.005972 0.104260 -0.005367 0.000000 0.000000 -0.000000 -0.000020 0.000672 0.000309 0.000000 0.000000 0.000001 -0.000006 0.001368 -0.000065 -0.031959 -0.002455 0.159580 -0.000003 0.000015 -0.000007 -0.106613 -0.013378 -0.022581 22.674657 23.786610 2.715763 5.812242 -3.574189 -12.612923 -2.033177 5.795710 4.789199 -0.008269 -0.017364 -0.009130 0.001372 -0.000757 0.000195 -0.000074 -0.000411 0.000096 -22.952250 1.111181 -9.846988 -0.015791 -0.019370 -0.010870 -0.000005 0.000011 -0.000000 -0.000143 -0.013014 0.000295 -4.059745 4.224512 6.808913 0.720652 13.110236 1.764616 -0.016274 -0.006169 -0.012862 0.000001 0.000005 -0.000001 -0.000567 -0.013608 0.000377 -0.001185 -0.011791 0.000789 0.000542 -0.020176 -0.000671 -0.017107 0.003471 -0.011996 -0.000000 0.000002 0.000001 -0.000716 -0.016761 0.000436 -0.000647 -0.015893 0.000170 -0.000128 -0.042074 0.002319 -0.014367 0.020048 -0.015014 0.000001 0.000000 -0.000002 -0.000989 -0.017901 0.001032 0.000527 -0.022085 0.001599 0.000328 -0.056885 0.006361 -0.000001 -0.000000 -0.000000 0.000004 -0.000004 0.000006 0.000001 -0.000000 0.000000 -0.000001 -0.000080 -0.000001 0.000000 -0.002727 0.194732 11.600823 4.950929 0.942665 10.997266 0.064075 0.225710 0.075424 -0.033073 0.045626 0.000424 0.000107 -0.000167 -0.075423 -0.033073 0.045626 0.000450 -0.000111 0.000180 
0.000000 0.000642 0.045086 0.000000 0.000000 0.000000 1.561682 -1.478718 0.801320 22.969060 -1.831378 -123.731062 -0.109488 -0.026910 -0.119863 -7.531444 -11.433699 -9.039644 30.567962 -3.349749 -3.337973 -36.819251 -3.836730 -12.363703 -0.009320 -0.126011 -0.069821 29.886343 -1.917159 0.008880 -0.000000 -0.000000 -0.000000 0.000001 -0.000002 0.000002 0.000000 0.000000 0.000000 0.000002 0.000004 -0.000001 0.115359 -0.026910 -0.119864 -4.822592 -5.252208 8.989180 27.730660 3.551008 3.040580 -43.440843 -1.271427 17.141005 29.714038 2.014681 0.021933 0.000000 0.000000 -0.000000 -0.000002 -0.000004 -0.000002 -0.000000 -0.000000 -0.000000 -0.000000 0.000000 0.000003 -11.863537 0.374103 -0.360874 2.074986 -2.809415 -1.789326 -3.733616 -4.481783 -0.867362 0.031960 -0.002455 0.159581 0.000001 -0.000007 -0.000010 0.106614 -0.013377 -0.022582 50.994278 51.881198 -32.293360 -2.912883 -3.267906 -3.250418 3.194233 -6.868145 -7.626808 0.008269 -0.017363 -0.009130 0.000926 -0.000064 -0.000379 -0.000306 -0.000114 0.000231 -3.773359 1.845430 26.679803 0.015791 -0.019369 -0.010870 -0.000003 -0.000021 -0.000003 -0.000176 0.014386 -0.000343 -12.169515 -13.918511 -15.628810 1.371907 -6.041044 -0.750055 0.016274 -0.006169 -0.012863 0.000003 0.000016 0.000001 -0.000648 0.015496 -0.000433 -0.000114 0.033335 0.000381 0.000283 0.071434 0.000419 0.017107 0.003471 -0.011996 -0.000004 -0.000013 -0.000001 -0.000004 0.017527 0.000237 -0.000670 0.031914 0.000157 0.000754 0.091894 -0.004036 0.014367 0.020048 -0.015015 -0.000004 -0.000000 0.000001 0.000251 0.017967 -0.000006 0.001923 0.039140 -0.002046 0.005970 0.104264 -0.005366 0.000000 0.000000 -0.000000 -0.000024 0.000674 0.000308 0.000001 0.000000 0.000001 -0.000003 0.001363 -0.000065 -0.031959 -0.002455 0.159580 0.000003 0.000015 -0.000010 -0.106614 -0.013378 -0.022581 43.825560 -53.588793 20.579748 -13.546920 7.314829 20.719442 -15.707579 4.260194 -2.873255 -0.008269 -0.017364 -0.009130 0.001366 -0.000752 0.000196 -0.000069 -0.000408 0.000096 12.367854 6.574289 -51.605119 -0.015791 -0.019369 -0.010870 -0.000006 0.000018 0.000003 -0.000146 -0.013007 0.000293 11.611516 24.488795 -9.459444 1.359214 6.082764 0.666072 -0.016275 -0.006169 -0.012862 -0.000001 0.000005 -0.000000 -0.000563 -0.013610 0.000377 -0.001183 -0.011796 0.000786 0.000547 -0.020174 -0.000671 -0.017108 0.003471 -0.011996 -0.000004 0.000011 0.000002 -0.000720 -0.016768 0.000433 -0.000647 -0.015891 0.000167 -0.000126 -0.042074 0.002314 -0.014367 0.020048 -0.015014 0.000001 0.000004 0.000001 -0.000993 -0.017901 0.001033 0.000528 -0.022088 0.001603 0.000327 -0.056881 0.006361 -0.000000 -0.000000 -0.000000 0.000006 -0.000003 0.000004 0.000001 -0.000000 0.000000 -0.000001 -0.000078 -0.000004 0.000000 -0.002727 0.194733 22.453093 10.864154 -50.643059 7.279982 -7.733422 -12.937434 0.075424 -0.033073 0.045626 0.000430 0.000107 -0.000169 -0.075423 -0.033073 0.045626 0.000452 -0.000111 0.000176 
0.000000 0.000642 0.045086 0.000000 0.000000 0.000000 1.570006 -1.479067 0.798622 23.905652 -1.543852 -126.690911 -0.109487 -0.026910 -0.119863 -4.578334 -10.632574 -12.371476 32.108958 -3.389434 -3.464668 -37.575958 -2.992745 -13.256185 -0.009320 -0.126012 -0.069821 30.638425 -1.972211 -0.249735 -0.000000 0.000000 -0.000000 0.000002 -0.000001 -0.000001 0.000000 -0.000000 0.000001 0.000005 0.000001 -0.000001 0.115359 -0.026910 -0.119864 -4.026866 -6.172905 10.081999 28.357875 3.568266 3.090190 -42.876796 -2.379235 18.780847 26.195953 1.807523 -1.257580 0.000000 -0.000000 -0.000000 -0.000003 -0.000003 -0.000003 -0.000000 0.000000 -0.000000 -0.000001 -0.000002 0.000002 -11.506073 -0.182991 -0.616766 2.153100 -3.004812 -1.706643 -3.869842 -4.351436 -0.873666 0.031960 -0.002455 0.159581 -0.000009 -0.000005 -0.000007 0.106614 -0.013377 -0.022581 42.149716 53.111326 -23.348194 -2.655913 -3.117337 -2.810930 5.054979 -7.313740 -8.618847 0.008268 -0.017364 -0.009130 0.000925 -0.000068 -0.000377 -0.000304 -0.000111 0.000235 -4.024909 0.566518 27.312344 0.015791 -0.019370 -0.010870 -0.000006 -0.000021 -0.000001 -0.000179 0.014387 -0.000343 -12.159582 -15.361066 -15.461733 1.371909 -6.041048 -0.750059 0.016274 -0.006169 -0.012862 0.000001 0.000011 -0.000001 -0.000646 0.015492 -0.000431 -0.000111 0.033338 0.000382 0.000285 0.071437 0.000419 0.017107 0.003471 -0.011996 -0.000005 -0.000019 -0.000002 -0.000005 0.017527 0.000234 -0.000662 0.031909 0.000155 0.000755 0.091896 -0.004034 0.014367 0.020048 -0.015014 -0.000002 0.000001 -0.000002 0.000249 0.017962 -0.000007 0.001925 0.039138 -0.002046 0.005973 0.104257 -0.005366 0.000000 0.000000 -0.000000 -0.000020 0.000672 0.000308 0.000000 0.000000 0.000000 -0.000006 0.001369 -0.000061 -0.031960 -0.002455 0.159580 -0.000007 0.000014 -0.000006 -0.106613 -0.013378 -0.022581 38.594845 -54.195167 14.164294 -10.668761 6.563707 16.127677 -13.869963 4.359157 -1.831044 -0.008269 -0.017364 -0.009130 0.001370 -0.000757 0.000199 -0.000072 -0.000411 0.000097 12.618173 6.038163 -51.890689 -0.015791 -0.019369 -0.010870 -0.000009 0.000014 0.000002 -0.000142 -0.013012 0.000298 11.892269 23.945728 -9.883776 1.359213 6.082763 0.666075 -0.016274 -0.006169 -0.012862 -0.000007 0.000005 0.000001 -0.000564 -0.013605 0.000382 -0.001184 -0.011796 0.000793 0.000543 -0.020179 -0.000670 -0.017108 0.003471 -0.011996 -0.000003 0.000002 0.000000 -0.000719 -0.016760 0.000434 -0.000645 -0.015896 0.000172 -0.000132 -0.042075 0.002317 -0.014367 0.020048 -0.015014 -0.000003 0.000000 0.000002 -0.000988 -0.017899 0.001033 0.000526 -0.022084 0.001597 0.000329 -0.056879 0.006361 -0.000001 0.000000 -0.000000 0.000001 -0.000003 0.000006 0.000001 -0.000000 0.000000 -0.000005 -0.000080 0.000000 0.000000 -0.002726 0.194733 22.902548 10.643600 -51.096717 7.513306 -7.616422 -13.081803 0.075423 -0.033073 0.045625 0.000421 0.000106 -0.000165 -0.075423 -0.033073 0.045627 0.000446 -0.000111 0.000182 
